HIERARCHY
ROOT Hips
{
    OFFSET 0.000000 0.000000 0.000000
    CHANNELS 6 Xposition Yposition Zposition Zrotation Xrotation Yrotation
        JOINT Chest
        {
            OFFSET -0.000000 31.804140 -0.000000
            CHANNELS 3 Zrotation Xrotation Yrotation
            JOINT Neck
            {
                OFFSET -0.000000 23.903318 0.000000
                CHANNELS 3 Zrotation Xrotation Yrotation
                JOINT Head
                {
                    OFFSET -0.000000 10.511110 0.000000
                    CHANNELS 3 Zrotation Xrotation Yrotation
                    End Site
                    {
                        OFFSET -0.000000 16.244448 0.000000
                    }
                }
            }
            JOINT LeftCollar
            {
                OFFSET -0.000000 23.903318 0.000000
                CHANNELS 3 Zrotation Xrotation Yrotation
                JOINT LeftShoulder
                {
                    OFFSET 20.500000 -0.000000 0.000000
                    CHANNELS 3 Zrotation Xrotation Yrotation
                    JOINT LeftElbow
                    {
                        OFFSET 20.922438 0.000000 0.000000
                        CHANNELS 3 Zrotation Xrotation Yrotation
                        JOINT LeftWrist
                        {
                            OFFSET 26.373112 0.000000 0.000000
                            CHANNELS 3 Zrotation Xrotation Yrotation
                            End Site
                            {
                                OFFSET 0.000000 -14.333333 0.000000
                            }
                        }
                    }
                }
            }
            JOINT RightCollar
            {
                OFFSET -0.000000 23.903318 0.000000
                CHANNELS 3 Zrotation Xrotation Yrotation
                JOINT RightShoulder
                {
                    OFFSET -20.500000 0.000000 0.000000
                    CHANNELS 3 Zrotation Xrotation Yrotation
                    JOINT RightElbow
                    {
                        OFFSET -20.922438 0.000000 0.000000
                        CHANNELS 3 Zrotation Xrotation Yrotation
                        JOINT RightWrist
                        {
                            OFFSET -26.373112 0.000000 0.000000
                            CHANNELS 3 Zrotation Xrotation Yrotation
                            End Site
                            {
                                OFFSET -0.000000 -14.333333 0.000000
                            }
                        }
                    }
                }
            }
        }
    JOINT LeftHip
    {
        OFFSET 11.466667 0.000000 0.000000
        CHANNELS 3 Zrotation Xrotation Yrotation
        JOINT LeftKnee
        {
            OFFSET -0.000000 -37.458855 0.000000
            CHANNELS 3 Zrotation Xrotation Yrotation
            JOINT LeftAnkle
            {
                OFFSET -0.000000 -39.235966 0.000000
                CHANNELS 3 Zrotation Xrotation Yrotation
                End Site
                {
                    OFFSET -0.000000 -4.777778 16.244448
                }
            }
        }
    }
    JOINT RightHip
    {
        OFFSET -11.466667 0.000000 0.000000
        CHANNELS 3 Zrotation Xrotation Yrotation
        JOINT RightKnee
        {
            OFFSET -0.000000 -37.458855 0.000000
            CHANNELS 3 Zrotation Xrotation Yrotation
            JOINT RightAnkle
            {
                OFFSET -0.000000 -39.235966 0.000000
                CHANNELS 3 Zrotation Xrotation Yrotation
                End Site
                {
                    OFFSET -0.000000 -4.777778 16.244448
                }
            }
        }
    }
}
MOTION
Frames:    6
Frame Time:    0.010000
111.456146    89.164040    -111.585831    -3.501210    1.863747    -60.667095    4.276103    23.679043    1.304157    -7.593078    4.638962    7.733419    2.625096    -24.970093    8.013764    -9.239112    -0.127879    1.474685    -60.939766    24.597824    -8.175245    -6.025238    5.663876    -89.841270    141.628342    -27.183054    2.356463    13.347293    0.843964    7.402596    38.865761    45.267174    19.233549    -2.256606    -2.122528    84.432251    -114.465820    -19.839592    19.125473    18.555841    2.095394    -0.562153    -10.996021    17.477373    13.135694    -13.433374    3.585899    13.579288    -6.964829    -4.106414    -8.379600    -1.574229    28.245321    -21.241503    4.944983    -3.310646    -11.015148    
111.804794    88.415886    -111.119965    -4.164276    1.355338    -61.085438    4.117473    24.342220    1.156844    -7.712868    5.316350    7.941658    2.734901    -26.143953    8.225594    -9.344356    -0.102422    1.276059    -60.505856    24.878733    -8.218033    -5.547262    5.127477    -90.539642    140.506729    -27.319134    2.110687    13.637424    0.902364    7.695589    38.751747    45.206417    18.838221    -2.307651    -2.148255    85.124031    -114.167168    -19.212618    18.132017    18.501688    2.661874    -0.543518    -11.772511    18.639635    13.817288    -12.607861    2.103391    12.201403    -7.507138    -3.868869    -9.075587    -2.076967    29.899790    -23.078190    3.516049    -3.541653    -10.326428    
112.155067    87.623611    -110.665512    -4.760623    0.803919    -61.443394    3.890228    25.044024    1.010182    -7.814057    5.870301    8.137755    2.799939    -27.253965    8.423295    -9.456271    -0.076713    1.051695    -59.984364    25.085917    -8.431740    -4.992336    4.540462    -91.231583    139.385803    -27.413324    1.969244    13.918244    0.969368    8.024729    38.542839    44.990162    18.539572    -2.337929    -2.176089    85.858063    -114.008942    -18.758776    17.222122    18.347696    3.092418    -0.442744    -12.663233    19.971025    14.738050    -11.667633    0.334548    10.851265    -8.129138    -3.628553    -9.848310    -2.684571    31.518982    -24.206566    3.062947    -3.824803    -9.739062    
112.504448    86.812607    -110.227875    -5.253771    0.232582    -61.758854    3.594199    25.735628    0.896355    -7.888644    6.299500    8.319319    2.817521    -28.288061    8.602388    -9.571603    -0.044320    0.810952    -59.377262    25.214365    -8.817064    -4.410376    3.963477    -91.869751    138.422394    -27.514647    1.981056    14.177825    1.046772    8.388188    38.301868    44.584438    18.297899    -2.277313    -2.107789    86.601913    -114.115730    -18.490940    16.443186    18.088802    3.361617    -0.232270    -13.604300    21.423368    15.756737    -10.663458    -1.610967    9.610042    -8.822330    -3.417638    -10.612337    -3.339594    33.045979    -24.581594    3.614685    -4.220223    -9.428244    
112.849808    86.012871    -109.813545    -5.608410    -0.332012    -62.046146    3.229851    26.361534    0.841948    -7.920849    6.619354    8.482223    2.780373    -29.243408    8.756571    -9.681547    -0.089874    0.560672    -58.729393    25.330664    -9.291696    -3.803479    3.345776    -92.482201    137.633621    -27.714447    2.123661    14.412444    1.110474    8.779564    38.081184    43.999580    18.073881    -2.146150    -1.938342    87.339661    -114.380684    -18.442595    15.914310    17.729757    3.446562    0.067851    -14.545322    22.932896    16.777308    -9.647119    -3.597540    8.541286    -9.570893    -3.272049    -11.275805    -3.961134    34.425465    -24.293425    5.055134    -4.772812    -9.484226    
113.187347    85.257919    -109.429642    -5.796741    -0.862513    -62.314396    2.804037    26.872797    0.860877    -7.913463    6.840290    8.625970    2.700441    -30.115074    8.885983    -9.778486    -0.056351    0.317211    -58.009525    25.337297    -9.967102    -3.307403    2.967075    -92.859543    137.457458    -27.916761    2.536239    14.611864    1.176692    9.192055    37.905190    43.240547    17.867762    -1.904627    -1.614916    88.026947    -114.879967    -18.578720    15.635467    17.284895    3.331950    0.401549    -15.452462    24.424116    17.750395    -8.679779    -5.481894    7.690229    -10.353405    -3.223590    -11.756095    -4.456882    35.607620    -23.543533    7.155501    -5.503119    -9.892751    
